; NON-PLATED HOLES START AT T1
; THROUGH (PLATED) HOLES START AT T100
M48
INCH
T1C0.086614
T100C0.031496
T101C0.031497
T102C0.038000
T103C0.031555
T104C0.055118
T105C0.035000
T106C0.032000
T107C0.042000
T108C0.030000
%
T1
X021357Y000603
X000857Y000603
X000857Y018853
X028607Y018853
T100
X007107Y005603
T101
X002607Y009603
X001622Y009603
T102
X013107Y000853
X016607Y000853
X007107Y000853
X002607Y018103
X006107Y000853
X003607Y018103
X004107Y000853
X011107Y000853
X009107Y018103
X005107Y000853
X010107Y000853
X019607Y000853
X013357Y018103
X015357Y018103
X018607Y000853
X003107Y000853
X009107Y000853
X010107Y018103
X014107Y000853
X002107Y000853
X008107Y000853
X014357Y018103
X016357Y018103
X017607Y000853
T103
X007106Y007533
T104
X024349Y002103
X028279Y015793
X028279Y003103
X024345Y013817
X024349Y016762
X023357Y003103
X024349Y008012
X023353Y007040
X024349Y010853
X023357Y011853
X028279Y007043
X024345Y005067
X028279Y011853
X023353Y015790
T105
X012103Y011836
X005107Y017853
X017107Y006103
X001107Y015853
X020107Y006103
X007857Y013103
X013857Y009103
X007666Y017853
X012103Y006836
X007857Y009103
X007666Y016081
X012103Y003836
X009103Y005836
X013857Y005103
X012103Y010836
X009103Y016836
X009103Y013836
X006857Y014853
X009103Y009836
X012103Y014836
X006857Y010853
X001107Y011853
X016607Y011853
X021357Y009603
X016607Y015853
X017107Y009103
X021357Y005603
X009103Y012836
X012103Y005836
X015857Y009103
X020107Y009103
X009103Y008836
X009103Y015836
X012103Y009836
X015857Y005103
X012103Y016836
X012103Y013836
X014857Y009103
X017107Y008103
X002607Y015853
X020107Y008103
X014857Y005103
X005357Y009103
X009103Y004836
X009103Y011836
X012103Y008836
X009103Y007836
X012103Y012836
X015607Y011853
X012103Y015836
X015607Y015853
X017107Y007103
X009103Y010836
X012103Y004836
X020107Y007103
X009103Y006836
X003607Y015853
X009103Y003836
X005357Y010103
X005107Y016081
X009103Y014836
X012103Y007836
T106
X019607Y015103
X019607Y018103
X018607Y015103
X018607Y018103
T107
X021357Y004853
X021357Y001873
X003607Y012103
X004607Y012103
X002607Y012103
T108
X005607Y005603
X005607Y007603
X003607Y005603
X003607Y007603
T00
M30
